 <svg  version="1.0" xmlns="http://www.w3.org/2000/svg"  width="564.000000pt" height="846.000000pt" viewBox="0 0 564.000000 846.000000"  preserveAspectRatio="xMidYMid meet">  <g transform="translate(0.000000,846.000000) scale(0.100000,-0.100000)" fill="#386fc0" stroke="none"> <path d="M0 4230 l0 -4230 935 0 935 0 0 29 c0 42 86 206 138 265 24 28 50 62 58 78 27 52 106 74 152 42 16 -11 20 -22 16 -38 -4 -19 1 -26 30 -40 35 -16 35 -18 30 -64 -8 -64 -34 -132 -50 -132 -8 0 -14 -3 -15 -7 0 -5 -2 -24 -4 -43 -2 -19 -6 -47 -10 -63 l-7 -27 65 0 c64 0 64 0 91 40 30 45 143 313 158 375 5 22 14 54 20 70 5 17 16 55 23 87 8 31 26 68 40 84 14 15 30 44 35 64 18 69 66 85 135 47 l45 -26 43 25 c50 28 86 30 118 7 13 -10 33 -23 44 -29 11 -6 36 -38 56 -72 19 -33 51 -78 70 -99 19 -21 70 -91 114 -156 144 -212 225 -316 270 -347 54 -37 65 -38 65 0 0 17 7 33 17 39 14 8 15 13 6 33 -27 57 -53 119 -53 127 0 5 -23 53 -51 106 -62 119 -191 314 -273 415 -34 41 -82 107 -108 145 -26 39 -82 102 -125 140 -219 198 -228 209 -237 311 l-7 71 55 29 c52 27 57 28 93 15 42 -15 90 -63 129 -131 15 -25 51 -64 80 -88 30 -24 63 -61 74 -82 11 -22 60 -84 108 -138 160 -181 244 -284 300 -366 30 -44 65 -92 77 -106 45 -51 105 -148 126 -206 13 -32 29 -66 36 -75 20 -24 27 -83 15 -118 -10 -30 -9 -32 22 -45 27 -11 35 -21 40 -52 12 -66 16 -74 41 -74 38 0 60 45 56 118 -3 68 5 76 47 46 12 -8 30 -14 40 -12 14 3 12 8 -13 32 -16 15 -37 40 -45 56 -8 15 -23 38 -32 52 -10 13 -22 49 -28 79 -6 30 -35 103 -65 162 -29 60 -51 115 -48 122 7 21 39 28 89 20 40 -6 46 -4 79 29 l35 36 40 -39 c22 -21 61 -67 86 -102 26 -35 51 -66 56 -67 4 -2 8 -9 8 -16 0 -7 32 -39 72 -71 39 -33 86 -83 104 -110 17 -28 39 -56 47 -63 33 -28 30 -61 -10 -105 -21 -23 -44 -42 -53 -42 -26 0 -25 -54 2 -82 13 -14 22 -33 20 -44 -3 -19 11 -19 592 -19 l596 0 0 4230 0 4230 -2820 0 -2820 0 0 -4230z m3458 2973 c134 -33 467 -186 542 -249 8 -7 44 -27 80 -46 95 -48 117 -65 103 -79 -9 -9 -19 -7 -40 7 -32 21 -175 80 -215 89 -38 9 -36 -9 5 -46 32 -30 83 -65 216 -147 38 -24 77 -53 87 -63 16 -18 13 -18 -32 4 -27 13 -87 43 -134 66 -199 102 -443 194 -598 226 -42 9 -133 21 -201 26 -106 8 -132 7 -175 -7 -262 -83 -625 -280 -1086 -589 -128 -85 -234 -155 -237 -155 -9 0 131 129 187 172 140 107 563 398 579 398 4 0 18 11 31 25 l23 25 -21 0 c-12 0 -22 -4 -22 -10 0 -5 -12 -13 -27 -16 -16 -4 -34 -11 -41 -17 -7 -5 -16 -7 -19 -3 -4 4 -1 12 7 17 11 8 9 9 -10 4 -32 -9 -132 -63 -218 -118 -37 -24 -103 -65 -147 -91 -44 -26 -102 -61 -130 -78 -27 -17 -77 -46 -110 -66 -33 -20 -86 -55 -117 -79 -59 -45 -74 -52 -61 -29 8 13 54 52 222 183 40 32 87 70 105 84 144 118 322 242 507 351 113 67 382 198 406 198 12 0 34 5 50 11 80 32 367 33 491 2z m-166 -369 c33 -8 74 -25 90 -37 46 -34 101 -141 109 -211 l7 -60 -44 -50 c-49 -57 -48 -60 35 -70 69 -9 103 -31 99 -64 -2 -19 -20 -36 -72 -67 -117 -72 -114 -99 10 -84 55 7 89 7 108 -1 45 -17 37 -26 -98 -109 -30 -19 -58 -41 -61 -49 -11 -30 6 -35 99 -26 50 5 132 9 181 8 80 -1 97 -4 151 -32 64 -32 74 -48 67 -98 -5 -33 -48 -64 -89 -64 -14 0 -46 -9 -72 -19 -26 -11 -74 -25 -107 -31 -75 -14 -110 -27 -155 -55 -19 -13 -58 -25 -86 -28 -29 -3 -72 -16 -98 -28 -40 -18 -52 -20 -87 -11 -50 13 -64 8 -106 -31 -46 -43 -114 -48 -165 -14 -36 25 -37 25 -44 5 -5 -18 18 -98 36 -123 4 -5 6 -93 4 -195 -2 -115 2 -238 11 -325 8 -77 16 -165 19 -195 2 -30 8 -73 13 -95 7 -36 12 -40 41 -43 18 -2 40 2 48 8 22 19 58 4 103 -45 64 -69 54 -134 -14 -89 -13 9 -56 18 -98 21 -71 5 -78 4 -124 -24 -111 -68 -148 -67 -224 6 -45 43 -49 51 -49 93 0 26 9 66 19 91 44 102 53 190 42 409 -9 179 -13 211 -35 271 -33 85 -32 95 2 109 75 33 79 40 77 128 -2 45 -6 84 -9 87 -3 3 -24 -11 -47 -32 -38 -34 -45 -36 -78 -30 -51 11 -109 10 -160 -4 -57 -15 -145 -5 -191 21 -19 11 -57 27 -85 35 -27 8 -66 28 -87 43 -30 25 -51 31 -130 41 -98 12 -116 17 -138 45 -13 14 -10 20 20 45 23 19 43 28 58 25 33 -5 71 31 76 72 2 18 6 36 10 39 10 10 161 9 233 -1 76 -11 98 0 82 42 -6 15 -23 41 -39 57 -16 17 -31 41 -32 54 -3 22 3 25 56 38 55 12 96 35 96 54 0 4 -11 21 -25 37 -32 38 -32 72 1 103 14 13 35 41 45 62 46 88 234 234 429 333 144 73 252 90 372 58z m1248 -213 c0 -5 9 -13 20 -16 11 -3 20 -13 20 -21 0 -22 -13 -17 -45 16 -22 23 -25 30 -12 30 9 0 17 -4 17 -9z m318 -240 c25 -29 37 -51 29 -51 -14 0 -167 128 -167 140 0 34 75 -14 138 -89z m-47 -97 c70 -63 162 -187 258 -347 29 -48 51 -93 48 -100 -2 -6 -16 12 -31 41 -42 82 -139 208 -278 361 -48 53 -88 100 -88 104 0 12 48 -20 91 -59z m398 -674 c1 -13 0 -13 -9 0 -5 8 -9 24 -9 35 0 20 0 20 9 0 5 -11 9 -27 9 -35z m25 -36 c9 -23 7 -44 -3 -44 -5 0 -11 14 -13 30 -5 32 6 41 16 14z m-1398 -78 c21 -15 41 -67 30 -84 -2 -4 -26 -18 -51 -31 -38 -19 -57 -22 -103 -18 -87 8 -183 32 -222 56 l-35 21 53 0 c59 0 79 20 46 45 -16 11 -17 14 -4 19 52 19 253 13 286 -8z m-1638 3 c17 -6 33 -17 36 -25 3 -7 23 -17 45 -20 23 -4 48 -12 58 -19 15 -11 14 -14 -8 -28 -70 -46 -239 -59 -294 -23 -33 22 -31 32 8 47 l32 12 -47 6 c-59 8 -69 17 -32 32 66 25 157 34 202 18z m3119 -276 c-3 -10 -5 -2 -5 17 0 19 2 27 5 18 2 -10 2 -26 0 -35z m-2932 13 c18 -13 18 -15 -8 -50 -16 -20 -40 -38 -55 -42 -35 -7 -55 -18 -60 -32 -6 -19 40 -14 73 8 71 47 104 2 43 -57 -31 -30 -104 -63 -139 -63 -9 0 -42 12 -73 26 -53 24 -86 61 -86 94 0 7 -10 25 -21 42 -27 38 -15 51 48 54 59 2 183 21 191 28 11 11 68 6 87 -8z m1248 -30 c55 -19 102 -38 105 -41 11 -11 -38 -45 -63 -45 -12 0 -39 7 -58 15 -20 8 -41 15 -47 15 -15 0 -12 -26 5 -40 8 -7 15 -19 15 -27 0 -11 -9 -12 -37 -7 -59 11 -75 21 -63 44 13 24 -8 40 -22 16 -8 -15 -11 -15 -33 0 -37 24 -35 79 3 92 48 18 94 12 195 -22z m-314 -129 c89 -77 182 -124 272 -137 142 -21 237 4 356 92 70 51 88 56 118 34 18 -13 17 -14 -13 -30 -24 -12 -33 -25 -38 -54 -9 -49 -24 -78 -75 -141 -22 -29 -45 -69 -51 -88 -5 -18 -20 -50 -34 -70 -13 -20 -27 -48 -31 -62 -3 -14 -21 -55 -39 -90 -19 -35 -34 -71 -34 -80 0 -9 -18 -38 -40 -66 -21 -27 -46 -65 -54 -82 -19 -41 -56 -44 -90 -8 -36 38 -106 146 -106 163 0 7 -20 44 -45 81 -25 37 -45 75 -45 85 0 10 -12 33 -27 52 -63 76 -76 98 -99 165 -29 87 -30 105 -3 148 20 33 20 36 4 77 -16 42 -14 64 5 64 5 0 36 -24 69 -53z m-779 -21 c0 -8 -5 -18 -10 -21 -7 -4 -8 -24 -5 -50 4 -25 3 -45 -3 -49 -6 -3 -14 -42 -18 -85 -6 -77 -7 -80 -60 -141 -30 -33 -57 -73 -60 -88 -4 -15 -10 -31 -14 -37 -4 -5 -22 -45 -40 -89 -18 -43 -44 -88 -57 -100 -26 -22 -101 -48 -119 -42 -6 3 -15 26 -19 52 -5 34 -15 55 -36 75 -19 18 -29 37 -29 56 0 19 -12 44 -34 69 -18 21 -42 65 -52 97 -15 47 -32 73 -91 134 -79 82 -92 113 -45 113 16 0 44 -8 63 -17 26 -14 65 -19 164 -21 201 -6 298 22 400 113 54 48 65 53 65 31z m104 -460 c28 -59 23 -66 -42 -66 -32 0 -63 5 -69 11 -8 8 -20 7 -44 -5 -39 -20 -39 -20 -39 1 0 9 18 33 40 55 36 33 47 38 89 38 46 0 50 -2 65 -34z m-211 -113 c-7 -43 -31 -89 -63 -125 -17 -18 -28 -37 -26 -43 2 -5 25 -9 51 -7 41 2 46 0 40 -15 -14 -34 -10 -47 15 -53 24 -6 25 -9 25 -80 1 -83 0 -85 -101 -198 -28 -31 -71 -84 -96 -117 -53 -69 -88 -103 -140 -134 -36 -22 -53 -49 -24 -38 23 9 26 -3 6 -23 -10 -10 -32 -21 -49 -25 -17 -3 -33 -11 -37 -16 -8 -14 -81 -49 -87 -42 -19 18 23 117 77 182 41 49 44 61 16 61 -11 0 -20 5 -20 10 0 37 108 206 151 236 16 12 41 36 54 54 22 30 23 35 10 50 -18 20 -19 52 -2 69 10 10 8 15 -7 26 -17 13 -18 15 0 60 9 26 25 49 33 52 9 3 36 25 61 48 36 33 110 94 116 95 1 0 -1 -12 -3 -27z m919 -48 c24 -28 22 -38 -4 -30 -31 10 -35 15 -44 50 -7 28 -6 29 12 15 10 -8 27 -23 36 -35z m4 -165 c19 -7 37 -7 60 0 31 11 39 8 92 -24 94 -57 173 -145 251 -283 56 -98 69 -129 65 -152 -4 -20 4 -50 30 -105 20 -42 36 -88 36 -102 0 -13 6 -39 14 -57 12 -30 112 -137 187 -201 129 -109 153 -140 165 -213 5 -31 2 -42 -15 -57 -26 -24 -27 -60 -2 -85 16 -16 17 -21 4 -45 -7 -14 -19 -26 -25 -26 -11 0 -8 -55 8 -142 6 -34 4 -38 -15 -38 -17 0 -21 -6 -21 -35 0 -19 -7 -43 -16 -52 -8 -10 -23 -29 -34 -43 -15 -20 -21 -23 -31 -12 -23 21 -37 13 -62 -35 -14 -27 -32 -61 -41 -78 -9 -16 -16 -40 -16 -52 0 -26 -27 -31 -49 -10 -13 12 -13 -5 5 -120 5 -36 3 -43 -19 -57 -43 -29 -91 3 -121 79 -9 22 -26 45 -39 50 -12 6 -31 30 -43 54 l-21 43 -21 -28 c-51 -68 -101 -94 -188 -96 -29 -1 -139 35 -159 52 -12 10 -71 5 -109 -10 -16 -6 -26 -17 -26 -29 0 -27 -19 -37 -27 -14 -10 28 -23 32 -59 17 -28 -12 -38 -12 -75 1 -23 8 -51 15 -64 15 -18 0 -21 -4 -17 -29 3 -23 -2 -36 -23 -55 -54 -50 -111 -23 -102 47 l5 40 -53 -7 c-76 -9 -87 -14 -75 -36 17 -31 11 -68 -12 -84 -29 -21 -59 -2 -71 43 -7 30 -11 32 -35 26 -15 -4 -34 -8 -42 -8 -8 0 -48 -31 -89 -69 -61 -56 -81 -68 -108 -68 -26 0 -36 6 -45 24 -10 23 -15 24 -59 19 -46 -5 -49 -4 -68 27 -11 18 -25 55 -31 82 -19 77 -30 70 -59 -39 l-11 -41 -44 23 -44 23 -31 -49 c-17 -28 -31 -54 -31 -60 0 -5 19 -12 41 -15 98 -16 145 -114 79 -163 -31 -22 -31 -22 -10 -39 l20 -17 -21 -33 c-20 -31 -208 -185 -256 -211 -13 -6 -32 -29 -43 -51 -11 -21 -50 -72 -87 -113 -38 -40 -84 -101 -104 -134 -26 -42 -49 -67 -80 -84 -27 -15 -45 -33 -49 -49 -4 -15 -15 -27 -30 -30 -18 -5 -24 -12 -23 -28 2 -16 -5 -25 -22 -32 -26 -10 -31 -28 -26 -101 1 -24 -9 -61 -29 -105 -17 -38 -42 -97 -55 -131 -13 -34 -31 -72 -39 -85 -9 -14 -18 -45 -21 -70 -2 -25 -18 -73 -35 -106 -39 -73 -49 -132 -26 -151 22 -19 20 -58 -3 -66 -11 -3 -31 -3 -44 0 -20 5 -30 1 -48 -24 -24 -32 -98 -67 -123 -58 -28 11 -28 59 0 127 15 36 28 88 30 115 2 28 6 76 8 107 3 50 22 105 55 158 5 8 21 52 36 98 51 160 105 260 187 341 21 21 38 42 38 48 0 6 11 27 25 48 14 20 30 60 36 88 10 55 34 90 116 176 59 60 154 180 218 275 76 111 90 132 112 159 18 24 21 36 16 85 -3 31 -12 70 -20 85 -9 17 -11 40 -7 62 4 24 1 43 -10 59 -14 23 -17 85 -14 296 0 14 -3 99 -7 190 -10 222 -11 209 36 306 35 72 40 89 31 109 -9 19 -7 26 8 40 18 17 20 16 31 -8 10 -22 6 -41 -25 -130 -20 -57 -36 -116 -36 -131 0 -35 58 -96 92 -96 29 0 48 17 41 36 -3 10 3 14 20 14 14 0 27 6 30 14 3 8 14 14 24 14 10 0 26 3 35 7 12 5 20 2 24 -9 15 -40 62 5 129 125 20 34 44 69 55 76 10 7 51 56 90 108 40 52 76 95 80 95 5 0 32 18 60 39 44 33 56 38 71 28 14 -9 28 -6 67 12 40 19 53 21 71 12 17 -10 26 -8 51 11 23 17 33 19 42 10 7 -7 22 -12 35 -12 12 0 26 -7 31 -17 7 -12 18 -15 46 -10 21 3 46 1 61 -7 44 -23 91 0 114 55 11 25 27 52 35 58 21 17 131 27 140 12 4 -6 18 -11 31 -11 13 0 41 -14 61 -32 30 -26 39 -30 54 -20 14 9 21 8 31 -4 7 -8 53 -35 103 -60 50 -25 97 -51 104 -57 10 -8 19 -7 33 1 12 8 33 10 54 6 31 -5 36 -3 45 20 6 16 17 26 30 26 17 0 20 6 20 45 0 39 -4 47 -40 76 -22 18 -42 39 -45 48 -3 9 -22 34 -43 57 -20 23 -72 86 -116 142 -43 56 -95 112 -115 125 -20 14 -56 43 -80 66 -42 39 -43 42 -28 59 20 22 22 43 5 60 -7 7 -17 37 -24 68 -8 44 -8 58 3 74 16 23 30 24 69 10z m-360 -393 c4 -4 -1 -14 -12 -22 -36 -27 -204 -15 -204 14 0 18 199 25 216 8z m327 -1541 c18 -27 13 -36 -17 -36 -33 0 -49 15 -41 39 9 28 39 27 58 -3z m442 -26 c8 -26 -1 -40 -26 -40 -22 0 -34 22 -25 45 8 22 44 18 51 -5z m-623 -48 c9 -9 8 -18 -3 -39 -18 -37 -28 -43 -66 -43 -17 0 -33 -3 -36 -7 -2 -5 -2 -2 -1 5 2 7 -3 15 -10 18 -25 10 -25 32 -2 57 19 20 32 25 65 23 22 -1 46 -7 53 -14z m527 -247 c29 -14 70 -37 90 -53 20 -15 52 -36 71 -46 19 -10 53 -37 75 -60 55 -56 205 -169 290 -218 93 -55 167 -112 264 -205 67 -66 79 -82 75 -103 -4 -19 2 -32 25 -54 21 -20 31 -39 31 -59 0 -28 2 -29 35 -24 30 5 37 2 55 -23 11 -15 20 -33 20 -38 0 -6 35 -84 79 -174 145 -301 181 -380 181 -399 0 -11 14 -57 32 -102 17 -45 31 -90 30 -101 -1 -23 -38 -64 -66 -72 -12 -3 -30 -14 -41 -24 -11 -9 -41 -29 -67 -44 -41 -24 -55 -27 -113 -23 l-67 4 -75 74 c-41 41 -88 93 -104 116 -32 46 -39 79 -13 69 9 -3 19 -6 24 -6 4 0 49 -29 99 -65 49 -36 92 -65 94 -65 13 0 14 73 1 100 -14 27 -14 32 0 52 23 32 20 43 -19 82 -19 20 -35 42 -35 51 0 19 -45 111 -83 172 -14 23 -32 62 -38 88 -6 25 -19 50 -29 55 -10 5 -21 22 -25 37 -3 15 -23 55 -43 88 -99 165 -139 214 -320 394 -231 230 -243 239 -302 239 -101 -1 -284 109 -303 182 -14 55 -3 120 24 142 55 44 77 46 148 13z m-1149 -46 c52 -12 87 -40 107 -87 17 -40 11 -65 -21 -85 -17 -12 -25 -28 -28 -61 -5 -38 -17 -60 -69 -123 -35 -43 -93 -107 -129 -143 -36 -36 -78 -90 -94 -120 -15 -30 -55 -98 -87 -151 -47 -76 -72 -105 -119 -140 -33 -24 -73 -48 -88 -53 -15 -5 -31 -15 -35 -22 -14 -24 -53 -17 -65 11 -7 14 -12 32 -12 40 0 7 -11 27 -25 44 l-26 30 35 68 c47 94 172 258 252 332 84 77 114 117 114 154 0 34 33 103 90 187 48 71 75 98 115 116 36 16 30 16 85 3z m676 -132 c56 -56 113 -133 122 -165 10 -31 62 -90 252 -282 222 -223 370 -395 370 -427 0 -13 -7 -22 -80 -87 -39 -36 -41 -40 -26 -52 16 -12 16 -13 -3 -23 -11 -6 -26 -11 -33 -11 -33 0 -304 305 -351 395 -8 17 -32 46 -52 65 -20 19 -64 68 -97 108 -32 39 -65 72 -72 72 -21 0 -153 99 -191 142 -19 23 -35 52 -35 65 l0 24 28 -19 c15 -10 34 -22 42 -25 8 -4 25 -14 38 -23 45 -33 20 6 -29 45 -52 41 -84 51 -92 29 -7 -22 -29 62 -23 86 7 29 52 75 91 92 34 16 123 9 141 -9z m-2034 -72 c9 -35 -19 -103 -86 -204 -24 -36 -59 -97 -78 -136 -47 -97 -92 -166 -129 -199 -26 -23 -30 -33 -25 -58 4 -21 2 -28 -7 -26 -6 3 -13 20 -14 39 -6 83 -25 237 -34 272 -9 33 -7 42 8 59 25 28 91 60 98 48 7 -12 35 -2 35 14 0 6 14 25 31 41 17 17 47 55 67 85 53 82 73 101 101 98 18 -2 27 -11 33 -33z m3773 -217 c25 -19 55 -73 55 -97 0 -6 -12 -25 -27 -43 -16 -18 -33 -42 -39 -52 -16 -30 -28 -29 -60 3 -19 19 -42 30 -64 33 -33 3 -35 1 -38 -29 -4 -40 14 -108 34 -128 8 -8 27 -15 41 -15 41 0 63 -27 63 -75 0 -60 -10 -105 -24 -105 -17 0 -50 48 -66 95 -8 22 -26 54 -41 70 -40 45 -69 109 -69 154 0 34 6 46 35 72 22 21 35 42 35 58 1 71 103 108 165 59z m-2217 -58 c23 -11 42 -23 42 -27 0 -4 -9 -21 -20 -38 -11 -16 -20 -38 -20 -48 0 -18 -94 -182 -111 -193 -5 -3 -9 -12 -9 -20 0 -28 31 -13 62 31 34 48 45 54 54 30 11 -28 -5 -61 -57 -121 -34 -38 -73 -101 -110 -179 -32 -66 -70 -142 -84 -170 -45 -85 -55 -106 -55 -120 0 -24 -57 -75 -85 -75 -51 0 -108 43 -125 97 -11 31 -6 45 78 226 49 105 98 214 107 240 19 49 38 67 75 67 26 0 34 19 21 52 -14 37 49 179 118 261 17 20 49 17 119 -13z m-924 -616 c8 -3 25 -27 38 -52 28 -57 30 -149 5 -202 -19 -41 -93 -172 -123 -219 -12 -18 -24 -58 -28 -92 -5 -37 -12 -59 -20 -59 -14 0 -52 -48 -66 -85 -5 -14 -16 -25 -23 -25 -7 0 -21 -16 -30 -35 -33 -69 -52 -33 -49 94 2 72 0 83 -13 77 -11 -4 -19 3 -26 21 -8 22 -5 41 16 99 30 83 98 219 149 298 20 31 43 73 51 93 30 71 75 104 119 87z m466 -428 c-8 -8 -15 -6 -26 8 -22 30 -17 38 12 20 18 -13 22 -20 14 -28z m-1050 -80 c0 -8 -31 -35 -70 -61 -52 -34 -75 -45 -91 -40 -20 7 -17 10 22 34 25 14 56 38 71 54 29 29 68 36 68 13z"/> <path d="M2223 2400 c-9 -25 -9 -30 3 -30 15 0 35 39 27 53 -8 14 -19 7 -30 -23z"/> <path d="M3710 1782 c0 -5 11 -14 25 -20 29 -13 31 -10 9 12 -17 17 -34 21 -34 8z"/> <path d="M4376 1283 c-14 -14 -4 -44 26 -78 35 -40 104 -80 113 -66 8 14 -26 81 -42 81 -7 0 -17 8 -22 18 -11 21 -66 54 -75 45z"/> <path d="M2776 615 c-3 -9 -6 -24 -6 -33 0 -9 -10 -37 -22 -62 -33 -70 -49 -136 -58 -245 -5 -59 -19 -133 -34 -180 -14 -44 -26 -83 -26 -87 0 -5 140 -8 310 -8 171 0 310 3 310 6 0 3 -20 32 -45 64 -24 33 -53 77 -64 99 -11 21 -39 60 -61 86 -22 26 -52 70 -66 97 -14 28 -54 79 -88 113 -34 34 -73 84 -87 111 -26 51 -52 67 -63 39z"/> <path d="M4060 406 c0 -10 9 -16 21 -16 24 0 21 23 -4 28 -10 2 -17 -3 -17 -12z"/> <path d="M4370 336 c0 -8 5 -18 10 -21 6 -3 10 3 10 14 0 12 -4 21 -10 21 -5 0 -10 -6 -10 -14z"/> <path d="M4380 281 c0 -12 5 -21 10 -21 6 0 10 6 10 14 0 8 -4 18 -10 21 -5 3 -10 -3 -10 -14z"/> <path d="M3772 145 c-36 -16 -35 -35 2 -35 14 0 30 10 40 25 19 29 9 32 -42 10z"/> <path d="M4080 15 c0 -8 7 -15 16 -15 14 0 14 3 4 15 -7 8 -14 15 -16 15 -2 0 -4 -7 -4 -15z"/> </g> </svg> 